# xmcd
#
# Track frame offsets:
#	150
#	10725
#	26312
#	36297
#	48610
#	58047
#	70140
#	85385
#	93705
#	103067
#	112222
#	130530
#	146237
#	156222
#	172267
#	190277
#	203790
#
# Disc length: 3424 seconds
#
# Revision: 0
# Processed by: cddbd v1.5.2PL0 Copyright (c) Steve Scherf et al.
# Submitted via: dBpowerAMP V4.0
#
DISCID=f90d5e11
DTITLE=The Byrds - The Notorious Byrd Brothers
DYEAR=1900
DGENRE=Country
TTITLE0=01.Artificial Energy
TTITLE1=02.Goin´Back
TTITLE2=03.Natural Harmony
TTITLE3=04.Draft Morning
TTITLE4=05.Wasn´t Born To Follow
TTITLE5=06.Get To You
TTITLE6=07.Change Is Now
TTITLE7=08.Old John Robertson
TTITLE8=09.Tribal Gathering
TTITLE9=10.Dolphin´s Smile
TTITLE10=11.Space Odessey
TTITLE11=12.Moog Raga(Instrumental)(Bonus Track)
TTITLE12=13.Bound To Fall(Instrumental)(Bonus Track)
TTITLE13=14.Triad(Bonus Track)
TTITLE14=15.Goin´Back(Version One)(Bonus Track)
TTITLE15=16.Draft Morning(Alternate End-A)
TTITLE16=Universal Mind Decoder(Instrumental)(Bonus Track)
EXTD=
EXTT0=
EXTT1=
EXTT2=
EXTT3=
EXTT4=
EXTT5=
EXTT6=
EXTT7=
EXTT8=
EXTT9=
EXTT10=
EXTT11=
EXTT12=
EXTT13=
EXTT14=
EXTT15=
EXTT16=
PLAYORDER=
